<svg xmlns="http://www.w3.org/2000/svg" xmlns:xlink="http://www.w3.org/1999/xlink" width="110px" height="32px" viewBox="0 0 110 32" version="1.1"><g stroke="none" stroke-width="1" fill="none" fill-rule="evenodd"><g transform="translate(-195.000000, -2504.000000)" fill="#7A8995"><g transform="translate(195.000000, 2504.000000)"><path d="M110 32L110 0 75.9086335 0 75.9086335 32 110 32 110 32 110 32ZM102.229825 9.18618822C99.5954921 7.71293162 96.9832964 6.93297224 94.5260616 6.93297224 91.8917287 6.93297224 89.7222781 7.75626269 88.0398471 9.4028436 86.3131415 10.9844279 85.4055142 12.9559919 85.4055142 15.4258632 85.4055142 17.7874069 86.2910042 19.802302 87.9734353 21.4488829 89.7665526 22.9871361 91.8917287 23.7454299 94.4596498 23.7454299 97.2046689 23.7454299 99.8832763 22.9221395 102.517609 21.2755586L102.517609 24.7203791C100.060374 26.041977 97.3153552 26.6919431 94.3046891 26.6919431 91.736768 26.6919431 89.6115919 26.1936357 87.8184745 25.2186865 86.091769 24.1787407 84.6971222 22.8138118 83.6345341 21.1238998 82.6383578 19.2606635 82.0627893 17.3974272 82.0627893 15.4258632 82.0627893 12.1327014 83.2360636 9.46784022 85.6490239 7.27962085 87.9955725 5.09140149 90.8955524 3.94312796 94.3046891 3.94312796 96.7619239 3.94312796 99.3962568 4.54976303 102.251962 5.80636425L102.229825 9.18618822ZM72.1010264 0L38.0096599 0 38.0096599 32 72.1010264 32 72.1010264 0ZM48.4584423 4.76641842L54.3912256 4.76641842C56.2950292 4.76641842 57.7560877 4.9830738 58.7965385 5.48138118 59.8591266 6.02301963 60.6339304 6.69465132 61.1430871 7.49627624 61.6965184 8.36289777 61.9843027 9.35951253 61.9843027 10.5077861 61.9843027 12.6960054 60.8553029 14.2342586 58.5087543 15.1658768 60.1911853 15.4475288 61.5194204 16.0974949 62.4713222 17.1807718 63.423224 18.1557211 63.865969 19.4339878 63.9323808 20.8422478 63.8881063 21.9471903 63.600322 22.9654705 63.0468907 23.8537576 62.4270477 24.7203791 61.5858322 25.4353419 60.4125579 26.041977 59.2392836 26.5836154 57.8446367 26.8652674 56.1179312 26.8652674L48.4584423 26.8652674 48.4584423 4.76641842ZM53.8156571 14.2125931C55.5423626 14.2125931 56.7820487 13.88761 57.512578 13.2809749 58.2431073 12.5660122 58.6194405 11.7427217 58.6194405 10.7027759 58.6194405 8.62288422 57.2247937 7.53960731 54.4797746 7.53960731L51.690481 7.53960731 51.690481 14.2125931 53.8156571 14.2125931ZM54.7011471 17.0724441L51.690481 17.0724441 51.690481 24.0270819 54.9225196 24.0270819C56.4278527 24.0270819 57.6675387 23.9187542 58.4423425 23.7020988 59.1728718 23.3121192 59.6820286 22.8788084 60.0140873 22.380501 60.3461461 21.8388626 60.5675186 21.2322275 60.5675186 20.5822613 60.5011069 19.9322952 60.3461461 19.3256601 59.9476756 18.7840217 59.6156168 18.1773866 59.0621856 17.7440758 58.2652445 17.4624238 57.5568525 17.1807718 56.3393037 17.0074475 54.7011471 17.0724441ZM34.0913665 0L0 0 0 32 34.0913665 32 34.0913665 0ZM10.3823707 26.8652674L10.3823707 4.76641842 16.315154 4.76641842C18.2189575 4.76641842 19.6136043 4.9830738 20.6761924 5.48138118 21.7387804 5.97968856 22.579996 6.69465132 23.0891527 7.56127285 23.642584 8.3845633 23.9303683 9.35951253 23.9746428 10.5077861 23.908231 12.6960054 22.8013685 14.2125931 20.4548199 15.2092079 22.1815255 15.4908599 23.465486 16.140826 24.4173878 17.1807718 25.3692896 18.1557211 25.8784464 19.4339878 25.8784464 20.8422478 25.8784464 21.9905213 25.5906621 23.0304672 24.9929563 23.8537576 24.3731133 24.7853758 23.5318978 25.5003385 22.4250352 26.041977 21.2517609 26.5836154 19.7907024 26.8652674 18.0639968 26.8652674L10.3823707 26.8652674ZM16.4258402 7.53960731L13.6365466 7.53960731 13.6365466 14.2125931 15.8059972 14.2125931C17.4884283 14.2125931 18.7059771 13.88761 19.4365063 13.2809749 20.1670356 12.6310088 20.5433689 11.7427217 20.5433689 10.7677725 20.5655061 8.64454976 19.1487221 7.53960731 16.4258402 7.53960731ZM16.6472127 17.0724441L13.6365466 17.0724441 13.6365466 24.0270819 16.8243107 24.0270819C18.5067418 24.0270819 19.7242906 23.9187542 20.4548199 23.7020988 21.0746629 23.4204469 21.5616824 23.0521327 21.9601529 22.4888287 22.2922117 21.8821936 22.4693097 21.2755586 22.5135842 20.5822613 22.4471725 19.8239675 22.2258 19.2173324 21.8937412 18.7840217 21.4952707 18.1773866 20.9418394 17.7440758 20.2113101 17.5274204 19.4365063 17.1807718 18.1968203 17.0724441 16.6472127 17.0724441Z"></path></g></g></g></svg>