<svg xmlns="http://www.w3.org/2000/svg" xmlns:xlink="http://www.w3.org/1999/xlink" width="123px" height="32px" viewBox="0 0 123 32" version="1.1"><g stroke="none" stroke-width="1" fill="none" fill-rule="evenodd"><g transform="translate(-399.000000, -2504.000000)" fill="#7A8995"><g transform="translate(195.000000, 2504.000000)"><path d="M273.83573 0L273.481054 0.0711544366C273.285982 0.115625959 271.290929 0.489186752 269.047602 0.907219067 266.804276 1.32525138 264.880158 1.68102356 264.773755 1.70770648 264.61415 1.7432837 264.578683 1.80554383 264.596417 2.09016158 264.61415 2.39256793 264.640751 2.42814515 264.968827 2.49929959 266.094923 2.74834011 266.298862 2.83728316 266.715606 3.26420978 267.22102 3.79786805 267.460426 4.4738352 267.611164 5.88802963 267.726433 7.01760631 267.753034 26.4249789 267.637764 29.288945L267.575696 30.9877571 268.488987 31.1834318C271.947079 31.9305534 275.396305 32.1884883 277.559829 31.859399 280.255368 31.4591553 282.22382 30.5252533 283.899665 28.879807 286.293729 26.5050276 287.446426 23.1429805 287.357757 19.0071289 287.269088 16.8813901 286.914412 15.4849843 286.027722 13.7594892 284.821823 11.4202871 282.791302 9.78373503 280.468173 9.30344259 278.739127 8.9387761 276.495801 9.22339384 274.802222 10.0238813 274.376611 10.219556 273.968733 10.3796534 273.897798 10.3796534 273.782528 10.3796534 273.773661 9.7214749 273.800262 5.19427387L273.83573 3.7918701e-15 273.83573 0ZM204 0.595918407L204.026601 1.15625959 204.053201 1.70770648 204.851223 1.80554383C205.916138 1.9389584 206.305395 2.05458436 206.731006 2.36588502 207.387157 2.83728316 207.786168 3.53103892 208.034441 4.62503838 208.424585 6.32385055 208.566455 10.1572958 208.504387 17.317211 208.433452 24.8862642 208.335916 26.4605561 207.857103 27.9903765 207.458092 29.2444734 206.722139 29.9115463 205.50826 30.1161153 205.173091 30.1694811 204.698712 30.2584242 204.453985 30.31179L204.008867 30.4096273 204.008867 31.3702122 219.880624 31.3702122 219.880624 30.8810255C219.880624 30.6141963 219.854023 30.3918387 219.827422 30.3918387 219.401811 30.3918387 217.433358 29.9649121 217.11415 29.8048146 215.988053 29.2355791 215.473773 27.8836448 215.269834 25.0107845 215.127964 22.9650944 214.986093 16.9436502 215.074762 16.8547072 215.163431 16.7657641 218.905264 16.9169673 219.348609 17.023699 220.554508 17.317211 221.4944 18.5090478 221.955479 20.3679575L222.168285 21.1862335 222.709166 21.2129164 223.250047 21.2395993 223.250047 10.9133117 222.673698 10.9133117C222.132817 10.9133117 222.097349 10.9311003 222.097349 11.1178807 222.097349 11.4558643 221.760407 12.5231808 221.441199 13.1902537 220.944652 14.2486759 220.244167 14.8801716 219.348609 15.0847406 219.126937 15.1381064 218.089509 15.2181551 217.043215 15.271521 215.571309 15.3337811 215.127964 15.3337811 215.065895 15.244838 214.968359 15.0936349 215.198899 3.37983574 215.314169 2.83728316L215.358503 2.63271415 218.621523 2.65939707 221.875677 2.68607998 222.629364 2.96180342C224.385011 3.59329905 225.652978 4.87407891 226.708139 7.10654936 226.938679 7.61352472 227.24902 8.34285769 227.382024 8.73420709 227.515027 9.12555649 227.630297 9.46354007 227.639164 9.47243437 227.656898 9.49022298 227.949506 9.41906854 228.286448 9.31233689L228.915998 9.11666219 228.871664 6.2171189C228.845063 4.61614407 228.809595 2.69497429 228.774128 1.95674701L228.729793 0.595918407 204 0.595918407 204 0.595918407ZM263.452586 8.79646722C263.35505 8.79646722 263.257514 8.79646722 263.151111 8.80536153 260.952119 8.92988179 258.992534 10.397442 257.591563 12.9767904 257.352157 13.4126113 257.11275 13.7594892 257.050682 13.7594892 256.962013 13.7594892 256.953146 13.2703024 256.997481 11.3135554L257.059549 8.85872736 256.846743 8.91209318C256.731473 8.9387761 254.958093 9.29454828 252.909838 9.7125806 248.511854 10.5931167 247.900038 10.7265313 247.802502 10.7887914 247.758167 10.8154744 247.7227 10.9755718 247.7227 11.1445636 247.7227 11.4736529 247.678365 11.4558643 248.680325 11.6159618 250.054695 11.8383194 250.533508 12.5142865 250.737447 14.4710335 251.012321 17.0325933 250.905918 27.0031087 250.595576 28.3639373 250.435972 29.057693 250.028095 29.7336602 249.620217 29.9649121 249.460613 30.0538552 248.9818 30.196164 248.556189 30.2851071L247.767034 30.4363103 247.740434 30.9077084 247.713833 31.3702122 260.757048 31.3702122 260.757048 30.4096273 260.065429 30.3473672C258.48712 30.2139526 258.052642 30.0538552 257.635898 29.4579368 257.032948 28.5862949 256.899945 26.9764258 256.899945 20.4657948L256.899945 15.3782526 257.121617 15.1381064C257.396491 14.8445943 258.265448 14.4354563 258.877264 14.3020418 260.11863 14.0441069 261.714673 14.2664645 262.95604 14.8801716 263.310716 15.0580576 263.621057 15.1825779 263.638791 15.1647893 263.674259 15.1292121 265.722513 9.7125806 265.784582 9.48132868 265.811182 9.38349133 265.695913 9.28565398 265.350103 9.15223941 264.702819 8.89430457 264.135338 8.77867862 263.452586 8.79646722L263.452586 8.79646722ZM236.949412 8.86762166C233.766194 8.86762166 231.203659 9.86378377 229.22634 11.8472137 227.116017 13.9818468 225.998787 16.9614388 225.998787 20.4480062 225.998787 24.0768825 227.009614 27.0031087 228.969199 29.0487987 230.042095 30.1783754 231.097256 30.8543426 232.60463 31.3968951 233.136644 31.5836755 233.526788 31.6726186 234.954359 31.9394477 235.078496 31.9661306 235.894251 31.9661306 236.772074 31.948342 237.960239 31.9216591 238.563189 31.8682933 239.121804 31.743773 240.691246 31.3702122 241.950346 30.809871 243.067576 29.9738064 245.798582 27.9281164 247.288222 24.7973212 247.430092 20.8304613 247.563096 16.9258616 246.392664 13.5993917 244.11387 11.44697 242.278421 9.70368629 239.955293 8.86762166 236.949412 8.86762166L236.949412 8.86762166ZM300.126098 8.86762166C297.111351 8.86762166 294.628618 9.87267808 292.677899 11.8827909 291.081857 13.4837657 290.195166 15.2804153 289.663152 17.8063978 289.485814 18.571308 289.485814 18.9626574 289.485814 20.5636322 289.485814 22.1557127 289.485814 22.5648507 289.663152 23.2941837 290.638511 27.9636936 293.741927 31.0322287 298.175379 31.8238218 299.239407 32.0194965 300.924119 32.0372851 301.988147 31.859399 304.027535 31.5214154 306.066923 30.5341476 307.485627 29.1555304 308.283649 28.3995145 308.549656 28.034848 308.460987 27.8391733 308.19498 27.332198 308.19498 27.332198 307.396958 27.7947018 306.244261 28.5329291 305.623578 28.7374981 304.204873 28.8887013 302.608831 29.057693 301.012788 28.7819696 299.682753 28.0526366 298.707393 27.5723442 297.554696 26.4694504 297.022682 25.4732883 296.313329 24.1124597 295.869984 22.5292735 295.781315 20.4924777 295.692646 19.6297302 295.692646 19.4162669 295.781315 19.3540068 295.869984 19.3095352 298.796062 19.273958 302.431493 19.273958L308.904332 19.273958 308.904332 19.0160232C308.904332 18.4289991 308.726994 16.8636015 308.549656 16.0364311 307.840304 12.7188555 306.066923 10.3618648 303.406852 9.41017424 302.431493 9.02771914 301.456133 8.86762166 300.126098 8.86762166L300.126098 8.86762166ZM319.544616 8.92098749C317.593897 8.92098749 317.416559 8.9387761 316.618538 9.15223941 314.224474 9.80152364 312.451093 11.1356693 311.564403 12.994579 311.121058 13.9907411 310.94372 14.746757 310.94372 15.9385938 310.94372 17.6285117 311.387065 18.8826086 312.451093 19.9766081 313.249115 20.9105101 314.401812 21.5775829 316.352531 22.2980216 317.859904 22.8672571 319.455947 23.6499559 320.07663 24.1480369 320.431306 24.441549 320.697313 24.7795325 320.874651 25.1530933 321.140658 25.6956459 321.229327 25.7668004 321.229327 26.6117593 321.229327 27.4300353 321.140658 27.5545556 320.874651 28.0971082 320.253968 29.5290912 318.923933 30.2317412 317.150552 30.0894324 314.756488 29.8937577 313.071776 28.3016772 311.653072 24.93963 311.298396 24.0679882 311.298396 24.0501996 310.766382 24.2547686L310.500375 24.3526059 310.589044 27.4834011C310.589044 30.2673185 310.589044 30.631985 310.766382 30.7298223 311.121058 31.0322287 313.69246 31.6370414 315.46584 31.8505047 316.884545 32.0194965 318.923933 32.0194965 319.987961 31.8682933 323.800729 31.2901635 326.194793 29.2622621 326.815476 26.1670441 327.170153 24.6728009 326.992815 23.0095659 326.4608 21.8977779 325.751448 20.3412746 324.421413 19.4073726 321.317996 18.0732269 319.012602 17.0948534 317.593897 16.2587888 317.061883 15.5027729 316.529869 14.8890659 316.4412 14.4087734 316.4412 13.5816031 316.4412 12.3364004 316.884545 11.3847099 317.771235 10.7887914 318.569256 10.2907104 319.455947 10.1661901 320.608644 10.424125 321.93868 10.7443199 322.914039 11.5537016 323.800729 13.0657334 324.066736 13.5460259 324.68742 14.8979602 324.953427 15.7340248 325.042096 15.8585451 325.042096 15.8674394 325.396772 15.7784963 325.57411 15.7162362 325.751448 15.6450817 325.840117 15.6095045L325.840117 12.7811157 325.751448 10.0060926 325.396772 9.87267808C324.864758 9.64142616 323.446053 9.25007676 322.559363 9.08108497 321.850011 8.9476704 321.229327 8.92098749 319.544616 8.92098749L319.544616 8.92098749ZM236.426265 10.3796534C237.277488 10.3796534 237.747434 10.5931167 238.412451 11.2601896 239.999627 12.8700587 240.753314 15.9296995 240.744447 20.7415183 240.73558 24.5838578 240.354303 27.0031087 239.50308 28.6396607 239.086336 29.4312538 238.314915 30.1605868 237.685365 30.3473672 235.255834 31.0678059 233.526788 28.7552867 232.852903 23.8989964 232.63123 22.3335988 232.640097 18.0643326 232.852903 16.2676831 233.331716 12.3630834 234.528748 10.3885477 236.426265 10.3796534L236.426265 10.3796534ZM299.682753 10.3885477C301.190126 10.3796534 302.165486 12.5053922 302.342824 16.3744147L302.342824 17.4773085 300.83545 17.5306743C299.94876 17.5573572 298.530055 17.5929344 297.643365 17.6107231L295.958653 17.637406 295.958653 17.2816338C295.958653 17.0770648 296.047322 16.5611951 296.135991 16.1164799 296.668006 12.5320751 297.998041 10.3885477 299.682753 10.3885477L299.682753 10.3885477ZM275.963787 11.5803846C276.717473 11.5803846 276.815009 11.6070675 277.444559 11.9183681 278.969667 12.674384 280.015961 14.5510823 280.503641 17.4061541 280.680979 18.4645763 280.70758 21.346331 280.539109 22.6093222 280.140098 25.7134345 279.129271 28.2216284 277.781502 29.4401481 277.249487 29.9204406 276.744074 30.1783754 276.105657 30.3028957 275.635711 30.3918387 275.493841 30.3918387 274.651485 30.3295786 274.287942 30.3028957 274.20814 30.2584242 274.137204 30.0716438 274.021935 29.7692374 273.888931 19.3451125 273.942133 15.1825779L273.986467 11.9272624 274.58055 11.7582706C274.970693 11.6426447 275.431772 11.5803846 275.963787 11.5803846L275.963787 11.5803846Z"></path></g></g></g></svg>