<svg xmlns="http://www.w3.org/2000/svg" xmlns:xlink="http://www.w3.org/1999/xlink" width="215px" height="32px" viewBox="0 0 215 32" version="1.1"><g stroke="none" stroke-width="1" fill="none" fill-rule="evenodd"><g transform="translate(-622.000000, -2504.000000)" fill="#7A8995"><g transform="translate(195.000000, 2504.000000)"><path d="M457.93932 2.125L445.781702 2.125 445.781702 7.5 448.528274 7.5 448.568664 17.4166667 438.632538 2.125 427.040391 2.125 427.040391 7.5 429.383055 7.5 429.383055 25.875 427 25.875 427 31.25 439.399962 31.25 439.399962 25.875 436.289874 25.875 436.289874 15.375 446.589517 31.25 455.27353 31.25 455.27353 7.5 457.93932 7.5 457.93932 2.125ZM476.842194 24.3333333C474.661093 26.2083333 472.560774 26.3333333 471.187488 26.3333333 467.794665 26.3333333 467.269585 24.0416667 467.02724 22.9166667L479.750329 22.9166667C480.598535 20.5416667 480.154236 17.3333333 479.669547 15.875 478.498215 12.375 474.822656 9.83333333 470.016156 9.83333333 463.917152 9.83333333 459.151043 13.875 459.151043 20.7083333 459.151043 28.7083333 464.805749 32 469.814203 32 474.014841 32 477.246102 31.0416667 480.235018 28.375L476.842194 24.3333333ZM470.258501 15.4583333C472.843509 15.4583333 473.207026 17.2083333 473.247417 18.7916667L467.148413 18.7916667C467.229194 17.75 467.794665 15.4583333 470.258501 15.4583333L470.258501 15.4583333ZM492.231073 24.875C492.150291 23.6666667 491.786774 20.875 491.221304 18.875L490.332707 15.8333333 491.705993 15.8333333 491.705993 10.4166667 480.840879 10.4166667 480.840879 15.8333333 482.577682 15.8333333 487.141837 31.25 495.462333 31.25 498.370468 21.8333333 501.15743 31.25 509.67988 31.25 514.405598 15.8333333 516.061619 15.8333333 516.061619 10.4166667 506.206275 10.4166667 506.206275 15.8333333 507.862296 15.8333333 507.175653 18.2916667C506.569791 20.5 506.206275 23.5416667 506.085102 24.875L506.004321 24.875C505.842758 23.4166667 505.236896 19.0416667 504.267518 15.8333333L502.73267 10.4166667 495.260379 10.4166667 493.967875 15.0833333C492.756153 19.2083333 492.433026 23.1666667 492.311854 24.875L492.231073 24.875ZM521.716325 31.25L522.079842 28.7083333C523.04922 30.2916667 525.351494 31.75 528.259628 31.75 532.177531 31.75 535.772309 29.4166667 535.772309 25.5 535.772309 21.125 532.339094 19.9166667 529.269397 18.8333333 526.684389 17.9166667 524.301334 17.4166667 524.301334 16.25 524.301334 15.2083333 525.028367 14.75 525.876573 14.75 527.896111 14.75 529.996431 16.1666667 529.996431 17.9166667L535.247229 17.9166667 535.247229 10.4166667 530.279166 10.4166667 529.95604 13.1666667C529.107834 11.375 526.684389 9.91666667 523.937817 9.91666667 521.070073 9.91666667 516.829044 11.7083333 516.829044 15.9583333 516.829044 19.875 519.454443 21.625 522.201014 22.625 525.109149 23.6666667 528.138456 23.875 528.138456 25.125 528.138456 26.2916667 527.169078 26.5416667 526.361262 26.5416667 525.14954 26.5416667 522.079842 25.9583333 522.079842 23.75L516.667481 23.75 516.667481 31.25 521.716325 31.25ZM547.970317 24.875C547.889536 23.6666667 547.526019 20.875 546.960549 18.875L546.071952 15.8333333 547.445238 15.8333333 547.445238 10.4166667 536.580124 10.4166667 536.580124 15.8333333 538.316927 15.8333333 542.881082 31.25 551.201578 31.25 554.109713 21.8333333 556.896675 31.25 565.419125 31.25 570.144843 15.8333333 571.800864 15.8333333 571.800864 10.4166667 561.945519 10.4166667 561.945519 15.8333333 563.60154 15.8333333 562.914898 18.2916667C562.309036 20.5 561.945519 23.5416667 561.824347 24.875L561.743566 24.875C561.582003 23.4166667 560.976141 19.0416667 560.006763 15.8333333L558.471914 10.4166667 550.999624 10.4166667 549.70712 15.0833333C548.495397 19.2083333 548.172271 23.1666667 548.051099 24.875L547.970317 24.875ZM589.69397 24.3333333C587.512869 26.2083333 585.412549 26.3333333 584.039264 26.3333333 580.64644 26.3333333 580.12136 24.0416667 579.879016 22.9166667L592.602104 22.9166667C593.45031 20.5416667 593.006012 17.3333333 592.521323 15.875 591.349991 12.375 587.674432 9.83333333 582.867932 9.83333333 576.768927 9.83333333 572.002818 13.875 572.002818 20.7083333 572.002818 28.7083333 577.657524 32 582.665978 32 586.866617 32 590.097877 31.0416667 593.086793 28.375L589.69397 24.3333333ZM583.110276 15.4583333C585.695285 15.4583333 586.058801 17.2083333 586.099192 18.7916667L580.000188 18.7916667C580.080969 17.75 580.64644 15.4583333 583.110276 15.4583333L583.110276 15.4583333ZM611.58576 24.3333333C609.404659 26.2083333 607.30434 26.3333333 605.931054 26.3333333 602.53823 26.3333333 602.01315 24.0416667 601.770806 22.9166667L614.493894 22.9166667C615.3421 20.5416667 614.897802 17.3333333 614.413113 15.875 613.241781 12.375 609.566222 9.83333333 604.759722 9.83333333 598.660718 9.83333333 593.894608 13.875 593.894608 20.7083333 593.894608 28.7083333 599.549314 32 604.557768 32 608.758407 32 611.989667 31.0416667 614.978584 28.375L611.58576 24.3333333ZM605.002067 15.4583333C607.587075 15.4583333 607.950592 17.2083333 607.990983 18.7916667L601.891978 18.7916667C601.97276 17.75 602.53823 15.4583333 605.002067 15.4583333L605.002067 15.4583333ZM627.903626 31.25L627.903626 25.7916667 626.409168 25.7916667 626.409168 22.2916667 627.822844 21.2916667 630.892542 25.7916667 629.19613 25.7916667 629.19613 31.25 641.151794 31.25 641.151794 25.7916667 639.132256 25.7916667 633.679504 17.75 636.426076 15.9583333 639.536164 15.9583333 639.536164 10.4583333 628.226752 10.4583333 628.226752 15.9583333 631.134886 15.9583333 626.449559 18.8333333 626.449559 0 617.119294 0 617.119294 5.45833333 618.775315 5.45833333 618.775315 25.8333333 617.119294 25.8333333 617.119294 31.25 627.903626 31.25Z"></path></g></g></g></svg>