<?xml version="1.0" encoding="UTF-8"?>
<svg version="1.1" viewBox="0 0 20 20" xmlns="http://www.w3.org/2000/svg" xmlns:xlink="http://www.w3.org/1999/xlink">
<title>Vector</title>
<desc>Created using Figma</desc>
<g transform="translate(2529 2762)">
<use transform="translate(-2529 -2762)" fill="white" xlink:href="#a"/>
</g>
<defs>
<path id="a" d="m10 0c-5.5224 0-10 4.4776-10 10 0 5.5224 4.4776 10 10 10 5.5225 0 10-4.4777 10-10 0-5.5224-4.4775-10-10-10zm5.2807 14.591l-0.8007 0.8009c-0.1429 0.1427-0.5615 0.2318-0.5749 0.2318-2.533 0.0221-4.9719-0.9729-6.7639-2.765-1.7969-1.7979-2.793-4.2455-2.7662-6.787 0-0.00116 0.09167-0.40774 0.2345-0.5492l0.80064-0.80077c0.29299-0.29434 0.8558-0.42736 1.2501-0.29546l0.16842 0.05619c0.39311 0.13177 0.80584 0.56643 0.91445 0.96687l0.40275 1.4782c0.10862 0.4016-0.03788 0.97294-0.33078 1.2659l-0.53462 0.5347c0.52489 1.9432 2.0496 3.4681 3.993 3.9943l0.5344-0.5348c0.2944-0.2944 0.8655-0.4408 1.2662-0.3323l1.478 0.4042c0.4006 0.11 0.8352 0.5202 0.9669 0.9132l0.0562 0.1708c0.1306 0.3932-0.0014 0.9558-0.2944 1.2475z"/>
</defs>
</svg>
