<svg xmlns="http://www.w3.org/2000/svg" xmlns:xlink="http://www.w3.org/1999/xlink" width="117px" height="49px" viewBox="0 0 117 49" version="1.1"><g stroke="none" stroke-width="1" fill="none" fill-rule="evenodd"><g transform="translate(-582.000000, -2590.000000)" fill="#7A8995"><g transform="translate(195.000000, 2504.000000)"><g transform="translate(388.000000, 86.000000)"><path d="M45.4092718 20.2507823L47.8120356 20.5793637C47.5009967 21.6511702 46.8944798 22.5352017 45.9924669 23.2314847 45.0904539 23.9277677 43.9590667 24.275904 42.5982713 24.275904 40.9653169 24.275904 39.651197 23.7243623 38.6558724 22.6212622 37.6605478 21.5181621 37.1628929 20.0239142 37.1628929 18.1384736 37.1628929 16.3469139 37.6644357 14.8644009 38.6675363 13.6908901 39.6706369 12.5173794 41.0314119 11.9306328 42.7499021 11.9306328 44.4295124 11.9306328 45.7280805 12.5095561 46.6456454 13.66742 47.5632103 14.825284 48.0219858 16.3117086 48.0219858 18.1267385L48.0103219 18.4318498 39.9272377 18.4318498C39.9272377 19.2376605 40.0030524 19.8830817 40.1546838 20.3681328 40.3063153 20.8531839 40.6076298 21.2756415 41.0586363 21.6355181 41.5096427 21.9953947 42.0733924 22.1753303 42.7499021 22.1753303 44.0640416 22.1753303 44.9504893 21.5338207 45.4092718 20.2507823L45.4092718 20.2507823ZM45.2459771 16.7067976C45.2382012 15.8540465 44.9835418 15.1577739 44.4819915 14.617959 43.9804412 14.078144 43.3603166 13.8082406 42.6215991 13.8082406 41.8906576 13.8082406 41.2802528 14.0605416 40.7903665 14.5651513 40.3004802 15.0697609 40.0127735 15.7836359 39.9272377 16.7067976L45.2459771 16.7067976ZM51.6494594 24.029468L50.4480775 24.029468 50.4480775 8.01112656 53.1074472 8.01112656 53.1074472 13.7965056C53.6128855 12.9124608 54.1183162 12.3296259 54.6237545 12.0479833 55.1291928 11.7663407 55.7201579 11.6255216 56.3966676 11.6255216 57.6874792 11.6255216 58.7566596 12.1770633 59.6042407 13.2801634 60.4518218 14.3832635 60.875606 15.9127162 60.875606 17.8685675 60.875606 19.636657 60.4576537 21.1465515 59.6217365 22.3982962 58.7858194 23.650041 57.5863934 24.275904 56.0234227 24.275904 54.452676 24.275904 53.2318665 23.5444266 52.3609574 22.0814499L51.6494594 24.029468ZM110.750342 18.8643539C110.716727 18.9342935 110.670895 18.9997591 110.612862 19.0575039L89.4789085 40.0867111C89.2053219 40.3589418 88.7641876 40.3564897 88.4936074 40.0812343 88.2230272 39.8059789 88.2254644 39.3621537 88.499051 39.0899231L109.633005 18.0607158C109.697238 17.9968007 109.770708 17.9480269 109.849037 17.9143702L107.800521 15.7552156 115 13.6522949 112.677587 20.8956885 110.750342 18.8643539ZM16.4439216 11.6041845L19.8186704 24.029468 22.7696377 24.029468 25.6506215 12.2474791 28.8232029 24.029468 31.8324896 24.029468 36.0898139 8.01112656 33.5587472 8.01112656 30.5377965 19.6875 27.3652151 8.01112656 24.4609035 8.01112656 21.5915836 19.6875 18.9540365 9.68610918 20.6452523 9.68610918 20.6452523 7.21001391 9.09798916 7.21001391 9.09798916 9.68610918 13.3319856 9.68610918 13.5831483 24.433936 16.6624185 24.433936 16.4439216 11.6041845ZM53.1074472 18.971662C53.1074472 20.0278217 53.334891 20.8081946 53.7897855 21.3128042 54.2446799 21.8174139 54.8337011 22.0697149 55.5568666 22.0697149 56.2567043 22.0697149 56.8437815 21.7802532 57.3181159 21.2013213 57.7924503 20.6223893 58.0451656 19.4880126 58.0762695 17.7981572 58.0762695 16.5620592 57.8624334 15.6095739 57.4347549 14.9406728 57.0070763 14.2717717 56.4044474 13.9373261 55.62685 13.9373261 54.8959085 13.9373261 54.2932796 14.2228761 53.8189452 14.7939847 53.3446108 15.3650933 53.1074472 16.1708919 53.1074472 17.2114047L53.1074472 18.971662ZM21.6654549 46.7070584L18.5978487 46.7070584 17.3264833 42.8931676 11.2029347 42.8931676 9.95489717 46.7070584 7.50547771 46.7070584 12.7892254 30.688717 16.3233877 30.688717 21.6654549 46.7070584ZM16.5566658 40.581363L14.2355493 33.4347184 11.9144327 40.581363 16.5566658 40.581363ZM26.5293021 46.7070584L23.5783349 46.7070584 23.5783349 30.688717 33.6442825 30.688717 33.6442825 33.1648122 26.5293021 33.1648122 26.5293021 37.5419854 32.1279752 37.5419854 32.1279752 39.9476704 26.5293021 39.9476704 26.5293021 46.7070584ZM48.119185 46.7070584L45.0865705 46.7070584 42.6138232 40.1236961 38.5781131 40.1236961 38.5781131 46.7070584 35.7087931 46.7070584 35.7087931 30.688717 42.6138232 30.688717C44.5344887 30.688717 45.9458067 31.1248652 46.8478197 31.9971749 47.7498326 32.8694845 48.2008323 33.9979938 48.2008323 35.3827364 48.2008323 37.4402919 47.2444019 38.856307 45.3315124 39.6308241L48.119185 46.7070584ZM38.5781131 37.8118915L42.1472671 37.8118915C43.1814716 37.8118915 43.9512815 37.5928395 44.4567198 37.1547288 44.962158 36.7166181 45.2148734 36.114225 45.2148734 35.3475313 45.2148734 34.6434249 44.966046 34.0742807 44.4683837 33.6400817 43.9707213 33.2058827 43.2747821 32.9887865 42.3805452 32.9887865L38.5781131 32.9887865 38.5781131 37.8118915ZM53.9278083 46.7070584L51.0584884 46.7070584 51.0584884 30.688717 53.9278083 30.688717 53.9278083 46.7070584ZM66.3265363 41.1446453L68.985906 41.4380216C68.8148346 43.0418196 68.1985979 44.3619993 67.1371775 45.3986005 66.0757571 46.4352016 64.6819347 46.9534944 62.9556686 46.9534944 61.5015615 46.9534944 60.3215752 46.5857999 59.4156743 45.8503999 58.5097733 45.1149998 57.8118902 44.1175306 57.3220038 42.8579624 56.8321175 41.5983943 56.587178 40.2097607 56.587178 38.6920202 56.587178 36.2511178 57.1625914 34.2659586 58.3134355 32.736483 59.4642796 31.2070073 61.0466665 30.4422809 63.0606437 30.4422809 64.6391663 30.4422809 65.9532862 30.9312364 67.0030426 31.909162 68.0527991 32.8870876 68.7137469 34.2874561 68.985906 36.1103095L66.3265363 36.3919506C65.83665 33.9745185 64.7558058 32.7658206 63.0839715 32.7658206 62.0108871 32.7658206 61.1769265 33.2684668 60.5820645 34.2737743 59.9872025 35.2790819 59.689776 36.7361692 59.689776 38.64508 59.689776 40.5852844 60.0085861 42.050195 60.6462159 43.0398557 61.2838458 44.0295164 62.1275263 44.5243394 63.1772827 44.5243394 64.0170879 44.5243394 64.7324667 44.1918496 65.3234407 43.5268602 65.9144147 42.8618708 66.2487766 42.0678071 66.3265363 41.1446453ZM83.7524061 46.7070584L80.6847999 46.7070584 79.4134345 42.8931676 73.2898859 42.8931676 72.0418484 46.7070584 69.5924289 46.7070584 74.8761766 30.688717 78.4103389 30.688717 83.7524061 46.7070584ZM78.643617 40.581363L76.3225004 33.4347184 74.0013839 40.581363 78.643617 40.581363ZM71.5990615 9.94211658L78.566299 2.93238083C78.8383866 2.65863362 78.8383866 2.2148017 78.566299 1.9410545 78.2942115 1.66730729 77.8530704 1.66730729 77.5809829 1.9410545L70.6137453 8.95079024C70.3416578 9.22453745 70.3416578 9.66836937 70.6137453 9.94211658 70.8858329 10.2158638 71.3269739 10.2158638 71.5990615 9.94211658ZM95.9843929 47.7946896L100.861459 42.8878746C101.133547 42.6141274 101.133547 42.1702954 100.861459 41.8965482 100.589372 41.622801 100.148231 41.622801 99.876143 41.8965482L94.9990768 46.8033633C94.7269892 47.0771105 94.7269892 47.5209424 94.9990768 47.7946896 95.2711643 48.0684368 95.7123054 48.0684368 95.9843929 47.7946896ZM71.5990615 14.8489316L84.3723303 1.9977494C84.6444179 1.72400219 84.6444179 1.28017027 84.3723303 1.00642306 84.1002428 0.732675854 83.6591017 0.732675854 83.3870142 1.00642306L70.6137453 13.8576053C70.3416578 14.1313525 70.3416578 14.5751844 70.6137453 14.8489316 70.8858329 15.1226788 71.3269739 15.1226788 71.5990615 14.8489316ZM71.8313027 19.5220888L88.0881904 3.16603869C88.3602779 2.89229148 88.3602779 2.44845956 88.0881904 2.17471235 87.8161028 1.90096514 87.3749617 1.90096514 87.1028742 2.17471235L70.8459866 18.5307624C70.573899 18.8045096 70.573899 19.2483416 70.8459866 19.5220888 71.1180741 19.795836 71.5592152 19.795836 71.8313027 19.5220888ZM74.6181978 21.6250095L90.8750854 5.26895941C91.1471729 4.9952122 91.1471729 4.55138029 90.8750854 4.27763308 90.6029978 4.00388587 90.1618568 4.00388587 89.8897692 4.27763308L73.6328816 20.6336831C73.360794 20.9074304 73.360794 21.3512623 73.6328816 21.6250095 73.9049691 21.8987567 74.3461102 21.8987567 74.6181978 21.6250095ZM77.8695753 23.0269566L95.2876692 5.50261727C95.5597567 5.22887006 95.5597567 4.78503814 95.2876692 4.51129094 95.0155816 4.23754373 94.5744405 4.23754373 94.302353 4.51129094L76.8842591 22.0356303C76.6121716 22.3093775 76.6121716 22.7532094 76.8842591 23.0269566 77.1563467 23.3007038 77.5974877 23.3007038 77.8695753 23.0269566ZM82.5109911 23.0303631L99.4646024 6.20699734C99.7385599 5.93514451 99.7416022 5.49132315 99.4713976 5.21569458 99.2011929 4.94006602 98.7600623 4.93700518 98.4861048 5.20885801L81.5324934 22.0322238C81.2585359 22.3040766 81.2554936 22.747898 81.5256983 23.0235266 81.795903 23.2991551 82.2370336 23.302216 82.5109911 23.0303631ZM86.2302604 24.1952459L101.325942 9.00748514C101.598029 8.73373793 101.598029 8.28990602 101.325942 8.01615881 101.053854 7.7424116 100.612713 7.7424116 100.340626 8.01615881L85.2449442 23.2039196C84.9728566 23.4776668 84.9728566 23.9214987 85.2449442 24.1952459 85.5170317 24.4689931 85.9581728 24.4689931 86.2302604 24.1952459ZM87.1592254 28.1674295L102.95163 12.2786952C103.223718 12.0049479 103.223718 11.561116 102.95163 11.2873688 102.679543 11.0136216 102.238402 11.0136216 101.966314 11.2873688L86.1739092 27.1761032C85.9018216 27.4498504 85.9018216 27.8936823 86.1739092 28.1674295 86.4459967 28.4411767 86.8871378 28.4411767 87.1592254 28.1674295ZM89.0171554 30.9713238L104.809561 15.0825895C105.081648 14.8088422 105.081648 14.3650103 104.809561 14.0912631 104.537473 13.8175159 104.096332 13.8175159 103.824244 14.0912631L88.0318392 29.9799975C87.7597516 30.2537447 87.7597516 30.6975766 88.0318392 30.9713238 88.3039267 31.245071 88.7450678 31.245071 89.0171554 30.9713238ZM88.5494843 36.1149841L106.664302 18.1233291C106.938139 17.8513536 106.940985 17.4075309 106.670659 17.1320233 106.400332 16.8565158 105.9592 16.8536524 105.685363 17.1256278L87.5705453 35.1172829C87.2967081 35.3892583 87.2938621 35.833081 87.5641886 36.1085886 87.8345151 36.3840962 88.275647 36.3869596 88.5494843 36.1149841ZM90.4067085 43.5927355L105.270149 28.8722905C105.54437 28.6007072 105.547844 28.156889 105.277907 27.8809949 105.00797 27.6051007 104.566843 27.6016061 104.292621 27.8731894L89.4291811 42.5936344C89.1549596 42.8652177 89.1514861 43.3090359 89.4214229 43.58493 89.6913597 43.8608242 90.1324871 43.8643188 90.4067085 43.5927355ZM92.2640747 46.6308454L105.269585 33.7796632C105.544112 33.5083932 105.548087 33.0645793 105.278461 32.7883771 105.008836 32.5121749 104.567713 32.5081766 104.293185 32.7794466L91.2876749 45.6306288C91.0131472 45.9018988 91.0091732 46.3457127 91.2787985 46.6219149 91.5484239 46.8981171 91.9895471 46.9021155 92.2640747 46.6308454ZM5.68879673 8.50212566C5.68879673 8.50212566 3.52419906 13.6189155 1.93168762 17.2239225 0.339176188 20.8289294-1.65146314 25.6356054 2.3298155 26.436718 6.31109415 27.2378307 7.2252656 24.4339364 7.2252657 18.8261478 7.2252658 13.2183592 7.22526573 8.50212566 7.22526573 8.50212566L5.68879673 8.50212566Z" stroke="#7A8995"></path><path d="M7.73742184 7.2139248C9.71741477 7.2139248 11.3225162 5.59903273 11.3225162 3.6069624 11.3225162 1.61489207 9.71741477 0 7.73742184 0 5.75742891 0 4.15232751 1.61489207 4.15232751 3.6069624 4.15232751 5.59903273 5.75742891 7.2139248 7.73742184 7.2139248ZM7.73742184 5.15280343C8.58599024 5.15280343 9.27389084 4.46070683 9.27389084 3.6069624 9.27389084 2.75321797 8.58599024 2.06112137 7.73742184 2.06112137 6.88885344 2.06112137 6.20095284 2.75321797 6.20095284 3.6069624 6.20095284 4.46070683 6.88885344 5.15280343 7.73742184 5.15280343Z"></path></g></g></g></g></svg>